# Made in Blockbench 4.12.3
mtllib item.mtl

o spokes
v 0.7329951288348663 0.249999999999999 -0.0625
v 0.5000000000000006 0.7499999999999991 0.5
v 0.5000000000000003 0.2499999999999991 0.5
v 0.2670048711651346 0.7499999999999992 1.0625
v 0.2670048711651344 0.24999999999999922 1.0625
v -0.062499999999999445 0.7499999999999993 0.7329951288348662
v -0.06249999999999967 0.24999999999999936 0.7329951288348662
v -0.062499999999999445 0.7499999999999993 0.26700487116513383
v -0.06249999999999967 0.24999999999999936 0.26700487116513383
v 0.2670048711651345 0.7499999999999992 -0.0625
v 0.26700487116513427 0.24999999999999922 -0.0625
v 0.7329951288348665 0.749999999999999 -0.0625
v 1.0625000000000004 0.7499999999999989 0.26700487116513383
v 1.0625000000000002 0.2499999999999989 0.26700487116513383
v 1.0625000000000004 0.7499999999999989 0.7329951288348662
v 1.0625000000000004 0.2499999999999989 0.7329951288348662
v 0.732995128834867 0.749999999999999 1.0625
v 0.7329951288348667 0.249999999999999 1.0625
vt 0.9296875 0.9375
vt 0.6953125 0.9375
vt 0.8125 0.65625
vt 0.6953125 0.90625
vt 0.9296875 0.90625
vt 0.9296875 0.9375
vt 0.6953125 0.9375
vt 0.9296875 0.9375
vt 0.6953125 0.9375
vt 0.8125 0.65625
vt 0.9296875 0.9375
vt 0.6953125 0.9375
vt 0.8125 0.65625
vt 0.6953125 0.90625
vt 0.9296875 0.90625
vt 0.9296875 0.9375
vt 0.6953125 0.9375
vt 0.9296875 0.9375
vt 0.6953125 0.9375
vt 0.8125 0.65625
vt 0.9296875 0.9375
vt 0.6953125 0.9375
vt 0.8125 0.65625
vt 0.6953125 0.90625
vt 0.9296875 0.90625
vt 0.9296875 0.9375
vt 0.6953125 0.9375
vt 0.9296875 0.9375
vt 0.6953125 0.9375
vt 0.8125 0.65625
vt 0.9296875 0.9375
vt 0.6953125 0.9375
vt 0.8125 0.65625
vt 0.6953125 0.90625
vt 0.9296875 0.90625
vt 0.9296875 0.9375
vt 0.6953125 0.9375
vt 0.9296875 0.9375
vt 0.6953125 0.9375
vt 0.8125 0.65625
vt 0.9296875 0.9375
vt 0.6953125 0.9375
vt 0.8125 0.65625
vt 0.6953125 0.90625
vt 0.9296875 0.90625
vt 0.9296875 0.9375
vt 0.6953125 0.9375
vt 0.9296875 0.9375
vt 0.6953125 0.9375
vt 0.8125 0.65625
vt 0.9296875 0.9375
vt 0.6953125 0.9375
vt 0.8125 0.65625
vt 0.6953125 0.90625
vt 0.9296875 0.90625
vt 0.9296875 0.9375
vt 0.6953125 0.9375
vt 0.9296875 0.9375
vt 0.6953125 0.9375
vt 0.8125 0.65625
vt 0.9296875 0.9375
vt 0.6953125 0.9375
vt 0.8125 0.65625
vt 0.6953125 0.90625
vt 0.9296875 0.90625
vt 0.9296875 0.9375
vt 0.6953125 0.9375
vt 0.9296875 0.9375
vt 0.6953125 0.9375
vt 0.8125 0.65625
vt 0.9296875 0.9375
vt 0.6953125 0.9375
vt 0.8125 0.65625
vt 0.6953125 0.90625
vt 0.9296875 0.90625
vt 0.9296875 0.9375
vt 0.6953125 0.9375
vt 0.9296875 0.9375
vt 0.6953125 0.9375
vt 0.8125 0.65625
vn 4.440892098500626e-16 1 0
vn -0.7071067811865472 3.140184917367549e-16 0.7071067811865478
vn -4.440892098500626e-16 -1 0
vn 4.440892098500626e-16 1 0
vn -1 4.440892098500626e-16 0
vn -4.440892098500626e-16 -1 0
vn 4.440892098500626e-16 1 0
vn -0.7071067811865475 3.14018491736755e-16 -0.7071067811865477
vn -4.440892098500626e-16 -1 0
vn 4.440892098500626e-16 1 0
vn 0 0 -1
vn -4.440892098500626e-16 -1 0
vn 4.440892098500626e-16 1 0
vn 0.7071067811865475 -3.14018491736755e-16 -0.7071067811865477
vn -4.440892098500626e-16 -1 0
vn 4.440892098500626e-16 1 0
vn 1 -4.440892098500626e-16 -2.3825026518301595e-16
vn -4.440892098500626e-16 -1 0
vn 4.440892098500626e-16 1 0
vn 0.7071067811865478 -3.1401849173675513e-16 0.7071067811865474
vn -4.440892098500626e-16 -1 0
vn 4.440892098500626e-16 1 0
vn 0 0 1
vn -4.440892098500626e-16 -1 0
usemtl m_a1331e58-40a9-8096-4155-344fe1c3d5c6
f 6/1/1 4/2/1 2/3/1
f 4/4/2 6/5/2 7/6/2 5/7/2
f 5/8/3 7/9/3 3/10/3
f 8/11/4 6/12/4 2/13/4
f 6/14/5 8/15/5 9/16/5 7/17/5
f 7/18/6 9/19/6 3/20/6
f 10/21/7 8/22/7 2/23/7
f 8/24/8 10/25/8 11/26/8 9/27/8
f 9/28/9 11/29/9 3/30/9
f 12/31/10 10/32/10 2/33/10
f 10/34/11 12/35/11 1/36/11 11/37/11
f 11/38/12 1/39/12 3/40/12
f 13/41/13 12/42/13 2/43/13
f 12/44/14 13/45/14 14/46/14 1/47/14
f 1/48/15 14/49/15 3/50/15
f 15/51/16 13/52/16 2/53/16
f 13/54/17 15/55/17 16/56/17 14/57/17
f 14/58/18 16/59/18 3/60/18
f 17/61/19 15/62/19 2/63/19
f 15/64/20 17/65/20 18/66/20 16/67/20
f 16/68/21 18/69/21 3/70/21
f 4/71/22 17/72/22 2/73/22
f 17/74/23 4/75/23 5/76/23 18/77/23
f 18/78/24 5/79/24 3/80/24
o core
v 0.25000000000000017 0.8124999999999991 0.75
v 0.25000000000000017 0.8124999999999991 0.25
v 0.7499999999999996 0.8124999999999991 0.75
v 0.7499999999999996 0.8124999999999991 0.25
v 0.25000000000000006 0.18749999999999917 0.75
v 0.25000000000000006 0.18749999999999917 0.25
v 0.7499999999999998 0.18749999999999906 0.75
v 0.7499999999999998 0.18749999999999906 0.25
vt 0.9375 0.0625
vt 0.9375 0.3125
vt 0.6875 0.3125
vt 0.6875 0.0625
vt 0.9375 0.0625
vt 0.9375 0.3125
vt 0.6875 0.3125
vt 0.6875 0.0625
vt 0.5625 0.34375
vt 0.625 0.34375
vt 0.625 0.375
vt 0.5625 0.375
vt 0.5625 0.34375
vt 0.625 0.34375
vt 0.625 0.375
vt 0.5625 0.375
vt 0.5625 0.34375
vt 0.625 0.34375
vt 0.625 0.375
vt 0.5625 0.375
vt 0.5625 0.34375
vt 0.625 0.34375
vt 0.625 0.375
vt 0.5625 0.375
vn 2.220446049250313e-16 1 0
vn -2.220446049250313e-16 -1 0
vn -1 2.220446049250313e-16 0
vn 1 1.332267629550188e-16 0
vn 0 0 1
vn 0 0 -1
usemtl m_a1331e58-40a9-8096-4155-344fe1c3d5c6
f 22/81/25 20/82/25 19/83/25 21/84/25
f 25/85/26 23/86/26 24/87/26 26/88/26
f 19/89/27 20/90/27 24/91/27 23/92/27
f 22/93/28 21/94/28 25/95/28 26/96/28
f 21/97/29 19/98/29 23/99/29 25/100/29
f 26/101/30 24/102/30 20/103/30 22/104/30
o shaft
v 0.375 -1.0547118733938987e-15 0.625
v 0.375 -1.0547118733938987e-15 0.375
v 0.37500000000000044 0.9999999999999989 0.625
v 0.37500000000000044 0.9999999999999989 0.375
v 0.625 -1.1657341758564144e-15 0.375
v 0.625 -1.1657341758564144e-15 0.625
v 0.6250000000000004 0.9999999999999988 0.375
v 0.6250000000000004 0.9999999999999988 0.625
vt 0.375 1
vt 0.625 1
vt 0.625 0
vt 0.375 0
vt 0.375 1
vt 0.625 1
vt 0.625 0
vt 0.375 0
vt 0.375 1
vt 0.625 1
vt 0.625 0
vt 0.375 0
vt 0.375 1
vt 0.625 1
vt 0.625 0
vt 0.375 0
vt 0.375 0.625
vt 0.625 0.625
vt 0.625 0.375
vt 0.375 0.375
vt 0.375 0.625
vt 0.625 0.625
vt 0.625 0.375
vt 0.375 0.375
vn 0 0 -1
vn -1 4.440892098500626e-16 0
vn 0 0 1
vn 1 -4.440892098500626e-16 0
vn -4.440892098500626e-16 -1 0
vn 4.440892098500626e-16 1 0
usemtl m_065b41bc-6a01-eb40-1a66-451223251b02
f 30/108/31 33/107/31 31/106/31 28/105/31
f 29/112/32 30/111/32 28/110/32 27/109/32
f 34/116/33 29/115/33 27/114/33 32/113/33
f 33/120/34 34/119/34 32/118/34 31/117/34
usemtl m_e1072649-4739-d3ca-b1f5-9ac46503e84f
f 32/124/35 27/123/35 28/122/35 31/121/35
f 33/128/36 30/127/36 29/126/36 34/125/36
o belt_tire
v 0.8106601717798216 0.2499999999999991 1.2499982759360724
v 0.8106601717798216 0.7499999999999991 1.2499982759360724
v 0.7327027562827003 0.2499999999999991 1.061792426155368
v 0.7327027562827003 0.7499999999999991 1.061792426155368
v 1.2500000000000004 0.2499999999999991 0.8106584477158938
v 1.2500000000000004 0.7499999999999991 0.8106584477158938
v 1.0617941502192958 0.2499999999999991 0.7327010322187726
v 1.0617941502192958 0.7499999999999991 0.7327010322187726
v 1.2500000000000004 0.2499999999999991 0.18933810415625107
v 1.2500000000000004 0.7499999999999991 0.18933810415625107
v 1.0617941502192958 0.2499999999999991 0.2672955196533723
v 1.0617941502192958 0.7499999999999991 0.2672955196533723
v 0.8106601717798216 0.2499999999999991 -0.25000172406392773
v 0.8106601717798216 0.7499999999999991 -0.25000172406392773
v 0.7327027562827004 0.2499999999999991 -0.061795874283223196
v 0.7327027562827004 0.7499999999999991 -0.061795874283223196
v 0.18933982822017897 0.2499999999999991 -0.25000172406392773
v 0.18933982822017897 0.7499999999999991 -0.25000172406392773
v 0.2672972437173001 0.2499999999999991 -0.06179587428322331
v 0.2672972437173001 0.7499999999999991 -0.06179587428322331
v -0.24999999999999967 0.2499999999999991 0.18933810415625058
v -0.24999999999999967 0.7499999999999991 0.18933810415625058
v -0.06179415021929524 0.2499999999999991 0.26729551965337195
v -0.06179415021929524 0.7499999999999991 0.26729551965337195
v -0.24999999999999978 0.2499999999999991 0.8106584477158939
v -0.24999999999999978 0.7499999999999991 0.8106584477158939
v -0.06179415021929524 0.2499999999999991 0.7327010322187726
v -0.06179415021929524 0.7499999999999991 0.7327010322187726
v 0.18933982822017842 0.2499999999999991 1.2499982759360724
v 0.18933982822017842 0.7499999999999991 1.2499982759360724
v 0.2672972437172997 0.2499999999999991 1.061792426155368
v 0.2672972437172997 0.7499999999999991 1.061792426155368
v -0.24999999999999978 0.4999999999999991 0.8106584477158939
v -0.24999999999999967 0.4999999999999991 0.18933810415625058
v 0.18933982822017897 0.4999999999999991 -0.25000172406392773
v 0.8106601717798216 0.4999999999999991 -0.25000172406392773
v 1.2500000000000004 0.4999999999999991 0.18933810415625107
v 1.2500000000000004 0.4999999999999991 0.8106584477158938
v 0.8106601717798216 0.4999999999999991 1.2499982759360724
v 0.18933982822017842 0.4999999999999991 1.2499982759360724
vt 0.4375 0
vt 0.5625 0
vt 0.5625 0.3125
vt 0.4375 0.3125
vt 0.3577 0.90625
vt 0.125 0.90625
vt 0.125 0.875
vt 0.3577 0.875
vt 0.10171181547499303 0
vt 0.335788184525007 0
vt 0.375 0.09375
vt 0.0625 0.09375
vt 0.375 0.09375
vt 0.0625 0.09375
vt 0.10171181547499297 0
vt 0.335788184525007 0
vt 0.4375 0
vt 0.5625 0
vt 0.5625 0.3125
vt 0.4375 0.3125
vt 0.3577 0.90625
vt 0.125 0.90625
vt 0.125 0.875
vt 0.3577 0.875
vt 0.10171181547499303 0
vt 0.335788184525007 0
vt 0.375 0.09375
vt 0.0625 0.09375
vt 0.375 0.09375
vt 0.0625 0.09375
vt 0.10171181547499297 0
vt 0.335788184525007 0
vt 0.4375 0
vt 0.5625 0
vt 0.5625 0.3125
vt 0.4375 0.3125
vt 0.3577 0.90625
vt 0.125 0.90625
vt 0.125 0.875
vt 0.3577 0.875
vt 0.10171181547499303 0
vt 0.335788184525007 0
vt 0.375 0.09375
vt 0.0625 0.09375
vt 0.375 0.09375
vt 0.0625 0.09375
vt 0.10171181547499297 0
vt 0.335788184525007 0
vt 0.4375 0
vt 0.5625 0
vt 0.5625 0.3125
vt 0.4375 0.3125
vt 0.3577 0.90625
vt 0.125 0.90625
vt 0.125 0.875
vt 0.3577 0.875
vt 0.10171181547499303 0
vt 0.335788184525007 0
vt 0.375 0.09375
vt 0.0625 0.09375
vt 0.375 0.09375
vt 0.0625 0.09375
vt 0.10171181547499297 0
vt 0.335788184525007 0
vt 0.4375 0
vt 0.5625 0
vt 0.5625 0.3125
vt 0.4375 0.3125
vt 0.3577 0.90625
vt 0.125 0.90625
vt 0.125 0.875
vt 0.3577 0.875
vt 0.10171181547499303 0
vt 0.335788184525007 0
vt 0.375 0.09375
vt 0.0625 0.09375
vt 0.375 0.09375
vt 0.0625 0.09375
vt 0.10171181547499297 0
vt 0.335788184525007 0
vt 0.4375 0
vt 0.5625 0
vt 0.5625 0.3125
vt 0.4375 0.3125
vt 0.3577 0.90625
vt 0.125 0.90625
vt 0.125 0.875
vt 0.3577 0.875
vt 0.10171181547499303 0
vt 0.335788184525007 0
vt 0.375 0.09375
vt 0.0625 0.09375
vt 0.375 0.09375
vt 0.0625 0.09375
vt 0.10171181547499297 0
vt 0.335788184525007 0
vt 0.4375 0
vt 0.5625 0
vt 0.5625 0.3125
vt 0.4375 0.3125
vt 0.3577 0.90625
vt 0.125 0.90625
vt 0.125 0.875
vt 0.3577 0.875
vt 0.10171181547499303 0
vt 0.335788184525007 0
vt 0.375 0.09375
vt 0.0625 0.09375
vt 0.375 0.09375
vt 0.0625 0.09375
vt 0.10171181547499297 0
vt 0.335788184525007 0
vt 0.4375 0
vt 0.5625 0
vt 0.5625 0.3125
vt 0.4375 0.3125
vt 0.3577 0.90625
vt 0.125 0.90625
vt 0.125 0.875
vt 0.3577 0.875
vt 0.10171181547499303 0
vt 0.335788184525007 0
vt 0.375 0.09375
vt 0.0625 0.09375
vt 0.375 0.09375
vt 0.0625 0.09375
vt 0.10171181547499297 0
vt 0.335788184525007 0
vt 0.4375 0.3125
vt 0.5625 0.3125
vt 0.5625 0
vt 0.4375 0
vt 0.4375 0.3125
vt 0.5625 0.3125
vt 0.5625 0
vt 0.4375 0
vt 0.4375 0.3125
vt 0.5625 0.3125
vt 0.5625 0
vt 0.4375 0
vt 0.4375 0.3125
vt 0.5625 0.3125
vt 0.5625 0
vt 0.4375 0
vt 0.4375 0.3125
vt 0.5625 0.3125
vt 0.5625 0
vt 0.4375 0
vt 0.4375 0.3125
vt 0.5625 0.3125
vt 0.5625 0
vt 0.4375 0
vt 0.4375 0.3125
vt 0.5625 0.3125
vt 0.5625 0
vt 0.4375 0
vt 0.4375 0.3125
vt 0.5625 0.3125
vt 0.5625 0
vt 0.4375 0
vn 0.7071067811865476 0 0.7071067811865476
vn -0.7071067811865475 0 -0.7071067811865477
vn 0 -1 0
vn 0 1 0
vn 1 0 0
vn -1 0 0
vn 0 -1 0
vn 0 1 0
vn 0.7071067811865477 0 -0.7071067811865475
vn -0.7071067811865477 0 0.7071067811865474
vn 0 -1 0
vn 0 1 0
vn 0 0 -1
vn -2.385496077400124e-16 0 1
vn 0 -1 0
vn 0 1 0
vn -0.7071067811865472 0 -0.7071067811865478
vn 0.7071067811865475 0 0.7071067811865477
vn 0 -1 0
vn 0 1 0
vn -1 0 -1.7868769888726192e-16
vn 1 0 0
vn 0 -1 0
vn 0 1 0
vn -0.7071067811865477 0 0.7071067811865475
vn 0.7071067811865478 0 -0.7071067811865472
vn 0 -1 0
vn 0 1 0
vn -3.573753977745239e-16 0 1
vn 2.3854960774001223e-16 0 -1
vn 0 -1 0
vn 0 1 0
vn -1 0 -1.7868769888726192e-16
vn -0.7071067811865472 0 -0.7071067811865478
vn 0 0 -1
vn 0.7071067811865477 0 -0.7071067811865475
vn 1 0 0
vn 0.7071067811865476 0 0.7071067811865476
vn -3.573753977745239e-16 0 1
vn -0.7071067811865477 0 0.7071067811865475
usemtl m_a1331e58-40a9-8096-4155-344fe1c3d5c6
f 36/129/37 73/130/37 72/131/37 40/132/37
f 38/133/38 42/134/38 41/135/38 37/136/38
f 37/137/39 41/138/39 39/139/39 35/140/39
f 36/141/40 40/142/40 42/143/40 38/144/40
f 40/145/41 72/146/41 71/147/41 44/148/41
f 42/149/42 46/150/42 45/151/42 41/152/42
f 41/153/43 45/154/43 43/155/43 39/156/43
f 40/157/44 44/158/44 46/159/44 42/160/44
f 44/161/45 71/162/45 70/163/45 48/164/45
f 46/165/46 50/166/46 49/167/46 45/168/46
f 45/169/47 49/170/47 47/171/47 43/172/47
f 44/173/48 48/174/48 50/175/48 46/176/48
f 48/177/49 70/178/49 69/179/49 52/180/49
f 50/181/50 54/182/50 53/183/50 49/184/50
f 49/185/51 53/186/51 51/187/51 47/188/51
f 48/189/52 52/190/52 54/191/52 50/192/52
f 52/193/53 69/194/53 68/195/53 56/196/53
f 54/197/54 58/198/54 57/199/54 53/200/54
f 53/201/55 57/202/55 55/203/55 51/204/55
f 52/205/56 56/206/56 58/207/56 54/208/56
f 56/209/57 68/210/57 67/211/57 60/212/57
f 58/213/58 62/214/58 61/215/58 57/216/58
f 57/217/59 61/218/59 59/219/59 55/220/59
f 56/221/60 60/222/60 62/223/60 58/224/60
f 60/225/61 67/226/61 74/227/61 64/228/61
f 62/229/62 66/230/62 65/231/62 61/232/62
f 61/233/63 65/234/63 63/235/63 59/236/63
f 60/237/64 64/238/64 66/239/64 62/240/64
f 64/241/65 74/242/65 73/243/65 36/244/65
f 66/245/66 38/246/66 37/247/66 65/248/66
f 65/249/67 37/250/67 35/251/67 63/252/67
f 64/253/68 36/254/68 38/255/68 66/256/68
f 59/257/69 67/258/69 68/259/69 55/260/69
f 55/261/70 68/262/70 69/263/70 51/264/70
f 51/265/71 69/266/71 70/267/71 47/268/71
f 47/269/72 70/270/72 71/271/72 43/272/72
f 43/273/73 71/274/73 72/275/73 39/276/73
f 39/277/74 72/278/74 73/279/74 35/280/74
f 35/281/75 73/282/75 74/283/75 63/284/75
f 63/285/76 74/286/76 67/287/76 59/288/76