# Made in Blockbench 5.0.7
mtllib rockcutting_wheel.mtl

o bit
v 0.656249998706404 -0.0625 -0.31250000024876834
v 0.343749998706404 -0.0625 -0.3124999997512314
v 0.343749998706404 0.0625 -0.3124999997512314
v 0.656249998706404 0.0625 -0.31250000024876834
v 0.656250001293596 -0.0625 1.3124999997512317
v 0.656250001293596 0.0625 1.3124999997512317
v 0.34375000129359595 -0.0625 1.3125000002487686
v 0.34375000129359595 0.0625 1.3125000002487686
vt 0.1875 0.5
vt 0.1875 0.34375
vt 0.125 0.34375
vt 0.125 0.5
vt 0.1875 0.4375
vt 1 0.4375
vt 1 0.5
vt 0.1875 0.5
vt 0.1875 0.5
vt 0.1875 0.34375
vt 0.125 0.34375
vt 0.125 0.5
vt 0.1875 0.4375
vt 1 0.4375
vt 1 0.5
vt 0.1875 0.5
vt 1 0.5
vt 1 0.34375
vt 0.1875 0.34375
vt 0.1875 0.5
vt 1 0.34375
vt 1 0.5
vt 0.1875 0.5
vt 0.1875 0.34375
vn -1.5921182594524908e-9 0 -1
vn 1 0 -1.592118163802507e-9
vn 1.5921180818168065e-9 0 1
vn -1 0 1.5921181296417986e-9
vn 0 1 0
vn 0 -1 0
usemtl m_a40036b6-0a51-8537-5d28-cd0859827132
f 1/1/1 2/2/1 3/3/1 4/4/1
f 5/5/2 1/6/2 4/7/2 6/8/2
f 7/9/3 5/10/3 6/11/3 8/12/3
f 2/13/4 7/14/4 8/15/4 3/16/4
f 8/17/5 6/18/5 4/19/5 3/20/5
f 2/21/6 1/22/6 5/23/6 7/24/6
o bit
v 0.9640388262442876 -0.06250000000000033 1.1850096935356627
v 1.185009695013272 -0.06250000000000033 0.9640388240630546
v 1.185009695013272 0.06249999999999967 0.9640388240630547
v 0.9640388262442876 0.06249999999999967 1.1850096935356627
v -0.18500969501327297 -0.0625 0.03596117593694434
v -0.1850096950132729 0.0625 0.03596117593694435
v 0.035961173755711395 -0.0625 -0.18500969353566352
v 0.03596117375571142 0.0625 -0.1850096935356635
vt 0.1875 0.5
vt 0.1875 0.34375
vt 0.125 0.34375
vt 0.125 0.5
vt 0.1875 0.4375
vt 1 0.4375
vt 1 0.5
vt 0.1875 0.5
vt 0.1875 0.5
vt 0.1875 0.34375
vt 0.125 0.34375
vt 0.125 0.5
vt 0.1875 0.4375
vt 1 0.4375
vt 1 0.5
vt 0.1875 0.5
vt 1 0.5
vt 1 0.34375
vt 0.1875 0.34375
vt 0.1875 0.5
vt 1 0.34375
vt 1 0.5
vt 0.1875 0.5
vt 0.1875 0.34375
vn 0.7071067823123453 -7.105427357600998e-16 0.7071067800607498
vn -0.70710678006075 0 0.7071067823123451
vn -0.7071067823123451 3.552713678800501e-16 -0.70710678006075
vn 0.7071067800607499 -1.0931426704001544e-15 -0.7071067823123453
vn 1.449316118015583e-16 1 1.4493161134006176e-16
vn -1.4493161180155836e-16 -1 -1.4493161134006176e-16
usemtl m_a40036b6-0a51-8537-5d28-cd0859827132
f 9/25/7 10/26/7 11/27/7 12/28/7
f 13/29/8 9/30/8 12/31/8 14/32/8
f 15/33/9 13/34/9 14/35/9 16/36/9
f 10/37/10 15/38/10 16/39/10 11/40/10
f 16/41/11 14/42/11 12/43/11 11/44/11
f 10/45/12 9/46/12 13/47/12 15/48/12
o bit
v 1.3125000002487681 -0.0625 0.6562499987064039
v 1.312499999751231 -0.0625 0.3437499987064038
v 1.312499999751231 0.0625 0.3437499987064038
v 1.3125000002487681 0.0625 0.6562499987064039
v -0.31249999975123155 -0.0625 0.6562500012935962
v -0.31249999975123155 0.0625 0.6562500012935962
v -0.3125000002487685 -0.0625 0.34375000129359623
v -0.3125000002487685 0.0625 0.34375000129359623
vt 0.1875 0.5
vt 0.1875 0.34375
vt 0.125 0.34375
vt 0.125 0.5
vt 0.1875 0.4375
vt 1 0.4375
vt 1 0.5
vt 0.1875 0.5
vt 0.1875 0.5
vt 0.1875 0.34375
vt 0.125 0.34375
vt 0.125 0.5
vt 0.1875 0.4375
vt 1 0.4375
vt 1 0.5
vt 0.1875 0.5
vt 1 0.5
vt 1 0.34375
vt 0.1875 0.34375
vt 0.1875 0.5
vt 1 0.34375
vt 1 0.5
vt 0.1875 0.5
vt 0.1875 0.34375
vn 1 0 -1.5921187923595423e-9
vn 1.5921183687667581e-9 0 1
vn -1 0 1.5921182594524908e-9
vn -1.5921184029274666e-9 0 -1
vn 0 1 0
vn 0 -1 0
usemtl m_a40036b6-0a51-8537-5d28-cd0859827132
f 17/49/13 18/50/13 19/51/13 20/52/13
f 21/53/14 17/54/14 20/55/14 22/56/14
f 23/57/15 21/58/15 22/59/15 24/60/15
f 18/61/16 23/62/16 24/63/16 19/64/16
f 24/65/17 22/66/17 20/67/17 19/68/17
f 18/69/18 17/70/18 21/71/18 23/72/18
o bit
v 1.1850096935356635 -0.0625 0.03596117375571162
v 0.9640388240630557 -0.0625 -0.18500969501327263
v 0.9640388240630557 0.0625 -0.18500969501327263
v 1.1850096935356635 0.0625 0.03596117375571162
v 0.035961175936944145 -0.0625 1.1850096950132727
v 0.035961175936944145 0.0625 1.1850096950132727
v -0.1850096935356635 -0.0625 0.9640388262442885
v -0.1850096935356635 0.0625 0.9640388262442885
vt 0.1875 0.5
vt 0.1875 0.34375
vt 0.125 0.34375
vt 0.125 0.5
vt 0.1875 0.4375
vt 1 0.4375
vt 1 0.5
vt 0.1875 0.5
vt 0.1875 0.5
vt 0.1875 0.34375
vt 0.125 0.34375
vt 0.125 0.5
vt 0.1875 0.4375
vt 1 0.4375
vt 1 0.5
vt 0.1875 0.5
vt 1 0.5
vt 1 0.34375
vt 0.1875 0.34375
vt 0.1875 0.5
vt 1 0.34375
vt 1 0.5
vt 0.1875 0.5
vt 0.1875 0.34375
vn 0.7071067800607499 0 -0.7071067823123453
vn 0.7071067823123449 0 0.7071067800607501
vn -0.70710678006075 0 0.707106782312345
vn -0.707106782312345 0 -0.70710678006075
vn 0 1 0
vn 0 -1 0
usemtl m_a40036b6-0a51-8537-5d28-cd0859827132
f 25/73/19 26/74/19 27/75/19 28/76/19
f 29/77/20 25/78/20 28/79/20 30/80/20
f 31/81/21 29/82/21 30/83/21 32/84/21
f 26/85/22 31/86/22 32/87/22 27/88/22
f 32/89/23 30/90/23 28/91/23 27/92/23
f 26/93/24 25/94/24 29/95/24 31/96/24
o core
v 0.2152283344279146 -0.37500005294117617 1.1875000533945665
v 0.7847716677612482 -0.37500005294117617 1.1875000524877863
v 0.7847716677612482 0.3749999470588239 1.1875000524877861
v 0.2152283344279146 0.3749999470588239 1.1875000533945663
v 1.1875000004533902 -0.3750000529411763 0.7847717185132618
v 1.1875000004533902 0.37499994705882367 0.7847717185132617
v 0.26700440089556676 0.3749999470588238 1.0625000533121327
v 0.7329947008955664 0.3749999470588238 1.062500052570221
v 1.1874999995466098 -0.3750000529411764 0.21522838517992848
v 1.1874999995466098 0.37499994705882367 0.21522838517992837
v 1.062500000370955 0.37499994705882367 0.7329947520456097
v 0.7847716655720857 -0.3750000529411765 -0.18749994751221366
v 0.7847716655720857 0.37499994705882345 -0.18749994751221388
v 1.0624999996290434 0.37499994705882367 0.26700445204560985
v 0.21522833223875215 -0.3750000529411765 -0.18749994660543345
v 0.21522833223875215 0.37499994705882345 -0.18749994660543368
v 0.7329946991044335 0.37499994705882356 -0.062499947429778824
v -0.18750000045339016 -0.3750000529411764 0.215228387369091
v -0.18750000045339016 0.37499994705882367 0.2152283873690909
v 0.26700439910443385 0.37499994705882356 -0.06249994668786729
v -0.18749999954660984 -0.3750000529411763 0.7847717207024243
v -0.18749999954660984 0.37499994705882367 0.7847717207024242
v -0.0625000003709551 0.37499994705882367 0.26700535383674284
v -0.06249999962904346 0.37499994705882367 0.7329956538367427
v 0.5 0.37499994705882367 0.5000000529411762
v 0.5 -0.37500005294117633 0.5000000529411764
v 0.7329956008955663 -0.3750000529411762 1.06250005257022
v 0.2670053008955666 -0.3750000529411762 1.0625000533121316
v -0.0624999996290449 -0.3750000529411763 0.7329947538367427
v -0.06250000037095654 -0.3750000529411764 0.26700445383674287
v 0.2670052991044337 -0.37500005294117644 -0.06249994668786851
v 0.7329955991044333 -0.37500005294117644 -0.062499947429780045
v 1.0624999996290434 -0.3750000529411764 0.26700445204560996
v 1.062500000370955 -0.3750000529411763 0.7329947520456098
vt 0 0.625
vt 0.25 0.625
vt 0.25 1
vt 0 1
vt 0 0.625
vt 0.25 0.625
vt 0.25 1
vt 0 1
vt 0.375 0.946023226082567
vt 0.3125 0.96875
vt 0.3125 0.71875
vt 0.375 0.741476773917433
vt 0 0.625
vt 0.25 0.625
vt 0.25 1
vt 0 1
vt 0.375 0.946023226082567
vt 0.3125 0.96875
vt 0.3125 0.71875
vt 0.375 0.741476773917433
vt 0 0.625
vt 0.25 0.625
vt 0.25 1
vt 0 1
vt 0.375 0.946023226082567
vt 0.3125 0.96875
vt 0.3125 0.71875
vt 0.375 0.741476773917433
vt 0 0.625
vt 0.25 0.625
vt 0.25 1
vt 0 1
vt 0.375 0.946023226082567
vt 0.3125 0.96875
vt 0.3125 0.71875
vt 0.375 0.741476773917433
vt 0 0.625
vt 0.25 0.625
vt 0.25 1
vt 0 1
vt 0.375 0.946023226082567
vt 0.3125 0.96875
vt 0.3125 0.71875
vt 0.375 0.741476773917433
vt 0 0.625
vt 0.25 0.625
vt 0.25 1
vt 0 1
vt 0.375 0.946023226082567
vt 0.3125 0.96875
vt 0.3125 0.71875
vt 0.375 0.741476773917433
vt 0 0.625
vt 0.25 0.625
vt 0.25 1
vt 0 1
vt 0.375 0.946023226082567
vt 0.3125 0.96875
vt 0.3125 0.71875
vt 0.375 0.741476773917433
vt 0.375 0.946023226082567
vt 0.3125 0.96875
vt 0.3125 0.71875
vt 0.375 0.741476773917433
vt 0.75 0.75
vt 1 0.85
vt 0.8500000000000001 1
vt 0.75 0.75
vt 1 0.6499999999999999
vt 1 0.85
vt 0.75 0.75
vt 0.8500000000000001 0.5
vt 1 0.6499999999999999
vt 0.75 0.75
vt 0.65 0.5
vt 0.8500000000000001 0.5
vt 0.75 0.75
vt 0.8500000000000001 1
vt 0.65 1
vt 0.75 0.75
vt 0.65 1
vt 0.5 0.85
vt 0.75 0.75
vt 0.5 0.85
vt 0.5 0.6499999999999999
vt 0.75 0.75
vt 0.5 0.6499999999999999
vt 0.65 0.5
vt 0.75 0.75
vt 0.65 0.5
vt 0.8500000000000001 0.5
vt 0.75 0.75
vt 0.5 0.6499999999999999
vt 0.65 0.5
vt 0.75 0.75
vt 0.8500000000000001 0.5
vt 1 0.6499999999999999
vt 0.75 0.75
vt 1 0.6499999999999999
vt 1 0.85
vt 0.75 0.75
vt 0.5 0.85
vt 0.5 0.6499999999999999
vt 0.375 0.741476773917433
vt 0.3125 0.71875
vt 0.3125 0.96875
vt 0.375 0.946023226082567
vt 0.75 0.75
vt 1 0.85
vt 0.8500000000000001 1
vt 0.375 0.741476773917433
vt 0.3125 0.71875
vt 0.3125 0.96875
vt 0.375 0.946023226082567
vt 0.375 0.741476773917433
vt 0.3125 0.71875
vt 0.3125 0.96875
vt 0.375 0.946023226082567
vt 0.75 0.75
vt 0.65 1
vt 0.5 0.85
vt 0.375 0.741476773917433
vt 0.3125 0.71875
vt 0.3125 0.96875
vt 0.375 0.946023226082567
vt 0.375 0.741476773917433
vt 0.3125 0.71875
vt 0.3125 0.96875
vt 0.375 0.946023226082567
vt 0.375 0.741476773917433
vt 0.3125 0.71875
vt 0.3125 0.96875
vt 0.375 0.946023226082567
vt 0.375 0.741476773917433
vt 0.3125 0.71875
vt 0.3125 0.96875
vt 0.375 0.946023226082567
vt 0.375 0.741476773917433
vt 0.3125 0.71875
vt 0.3125 0.96875
vt 0.375 0.946023226082567
vt 0.75 0.75
vt 0.8500000000000001 1
vt 0.65 1
vn 1.5921180240503552e-9 2.960594731944647e-16 1
vn 0.7071067823123454 6.497731964408494e-17 0.7071067800607497
vn -1.41408487057713e-24 1 -8.88178419700125e-16
vn 1 -2.420596069813323e-25 -1.5921184139146418e-9
vn -2.381727012469345e-16 1 -7.895235397346203e-16
vn 0.7071067800607501 -1.949319589322549e-16 -0.7071067823123449
vn 0 1 0
vn -1.5921180240503552e-9 -2.960594731944647e-16 -1
vn -1.614855364925231e-16 1 -3.898653039949844e-16
vn -0.7071067823123451 -1.2995463928816983e-16 -0.70710678006075
vn -1.4140848705771304e-24 1 -8.881784197001252e-16
vn -1 2.4205960698133234e-25 1.5921182189824986e-9
vn -2.3817391382867405e-16 1 -7.895247523163558e-16
vn -0.70710678006075 1.9493195893225476e-16 0.7071067823123451
vn 0 1 0
vn -1.614855364925231e-16 1 -3.898653039949844e-16
vn -9.868677368472687e-17 1 -2.3825046459109626e-16
vn 0 1 0
vn 9.868631277606139e-17 1 -2.382502743045731e-16
vn -3.1424107241670473e-25 1 -1.9737298215558337e-16
vn 3.142411194408658e-25 -1 1.9737298215558337e-16
vn -2.0438807266563666e-17 -1 1.8890696647700114e-16
vn -1.9022087233831224e-22 -1 2.382502435405111e-16
vn -9.868669473514529e-17 1 -2.3825027399033207e-16
vn 3.1424107241670473e-25 -1 1.9737298215558337e-16
vn 2.0438443018666174e-17 -1 1.8890711753722045e-16
vn -2.043845876794227e-17 -1 1.889070781280558e-16
vn 1.9097951740800295e-22 -1 2.3825024354051047e-16
vn 0 1 0
vn -8.074376005906933e-17 -1 1.949316598210799e-16
vn 2.043882421910459e-17 -1 1.889069269370005e-16
vn 8.074255733608035e-17 -1 1.9493214280909247e-16
vn -1.1908695565732013e-16 -1 3.947623765373789e-16
vn 9.868623382721677e-17 1 -2.3825008370484985e-16
vn -8.074276762554982e-17 -1 1.9493265225459628e-16
vn 7.070424352885652e-25 -1 4.440892098500626e-16
vn 8.074396084750964e-17 -1 1.9493214280909025e-16
vn -1.1908634936645303e-16 -1 3.9476177024650987e-16
vn 7.070424352885652e-25 -1 4.440892098500626e-16
vn -3.142411194408658e-25 1 -1.9737298215558337e-16
usemtl m_a40036b6-0a51-8537-5d28-cd0859827132
f 33/97/25 34/98/25 35/99/25 36/100/25
f 34/101/26 37/102/26 38/103/26 35/104/26
f 39/105/27 36/106/27 35/107/27 40/108/27
f 37/109/28 41/110/28 42/111/28 38/112/28
f 40/113/29 35/114/29 38/115/29 43/116/29
f 41/117/30 44/118/30 45/119/30 42/120/30
f 43/121/31 38/122/31 42/123/31 46/124/31
f 44/125/32 47/126/32 48/127/32 45/128/32
f 46/129/33 42/130/33 45/131/33 49/132/33
f 47/133/34 50/134/34 51/135/34 48/136/34
f 49/137/35 45/138/35 48/139/35 52/140/35
f 50/141/36 53/142/36 54/143/36 51/144/36
f 52/145/37 48/146/37 51/147/37 55/148/37
f 53/149/38 33/150/38 36/151/38 54/152/38
f 55/153/39 51/154/39 54/155/39 56/156/39
f 56/157/40 54/158/40 36/159/40 39/160/40
f 57/161/41 56/162/41 39/163/41
f 57/164/42 55/165/42 56/166/42
f 57/167/43 52/168/43 55/169/43
f 57/170/44 49/171/44 52/172/44
f 58/173/45 59/174/45 60/175/45
f 58/176/46 60/177/46 61/178/46
f 58/179/47 61/180/47 62/181/47
f 57/182/48 46/183/48 49/184/48
f 58/185/49 63/186/49 64/187/49
f 58/188/50 62/189/50 63/190/50
f 58/191/51 64/192/51 65/193/51
f 58/194/52 65/195/52 66/196/52
f 57/197/53 43/198/53 46/199/53
f 66/200/54 37/201/54 34/202/54 59/203/54
f 58/204/55 66/205/55 59/206/55
f 65/207/56 41/208/56 37/209/56 66/210/56
f 64/211/57 44/212/57 41/213/57 65/214/57
f 57/215/58 40/216/58 43/217/58
f 62/218/59 50/219/59 47/220/59 63/221/59
f 63/222/60 47/223/60 44/224/60 64/225/60
f 61/226/61 53/227/61 50/228/61 62/229/61
f 60/230/62 33/231/62 53/232/62 61/233/62
f 59/234/63 34/235/63 33/236/63 60/237/63
f 57/238/64 39/239/64 40/240/64