# Made in Blockbench 4.9.4
mtllib item.mtl

o cube
v 0.5 1 0.5
v 0.5 1 -0.5
v 0.5 0.875 0.5
v 0.5 0.875 -0.5
v -0.5 1 -0.5
v -0.5 1 0.5
v -0.5 0.875 -0.5
v -0.5 0.875 0.5
vt 0 1
vt 0.5 1
vt 0.5 0.9375
vt 0 0.9375
vt 0 1
vt 0.5 1
vt 0.5 0.9375
vt 0 0.9375
vt 0 1
vt 0.5 1
vt 0.5 0.9375
vt 0 0.9375
vt 0 1
vt 0.5 1
vt 0.5 0.9375
vt 0 0.9375
vt 0 1
vt 1 1
vt 1 0
vt 0 0
vt 0 1
vt 1 1
vt 1 0
vt 0 0
vn 0 0 -1
vn 1 0 0
vn 0 0 1
vn -1 0 0
vn 0 1 0
vn 0 -1 0
usemtl m_dce0580d-0fab-c8dd-ea7b-1568a31bb152
f 4/4/1 7/3/1 5/2/1 2/1/1
f 3/8/2 4/7/2 2/6/2 1/5/2
f 8/12/3 3/11/3 1/10/3 6/9/3
f 7/16/4 8/15/4 6/14/4 5/13/4
usemtl m_04db1213-ef04-a293-e4aa-d88d19fda309
f 6/20/5 1/19/5 2/18/5 5/17/5
f 7/24/6 4/23/6 3/22/6 8/21/6
o cube
v -0.25 0.6401650429449552 0.3125
v -0.25 0.375 0.047334957055044646
v -0.25 0.375 0.5776650429449552
v -0.25 0.10983495705504465 0.3125
v -0.375 0.375 0.047334957055044646
v -0.375 0.6401650429449552 0.3125
v -0.375 0.10983495705504465 0.3125
v -0.375 0.375 0.5776650429449552
vt 0.75 1
vt 0.8125 1
vt 0.8125 0.8125
vt 0.75 0.8125
vt 0.8125 1
vt 1 1
vt 1 0.8125
vt 0.8125 0.8125
vt 0.75 1
vt 0.8125 1
vt 0.8125 0.8125
vt 0.75 0.8125
vt 0.8125 1
vt 1 1
vt 1 0.8125
vt 0.8125 0.8125
vt 0.75 1
vt 0.8125 1
vt 0.8125 0.8125
vt 0.75 0.8125
vt 0.75 1
vt 0.8125 1
vt 0.8125 0.8125
vt 0.75 0.8125
vn 0 -0.7071067811865476 -0.7071067811865475
vn 1 0 0
vn 0 0.7071067811865476 0.7071067811865475
vn -1 0 0
vn 0 0.7071067811865475 -0.7071067811865476
vn 0 -0.7071067811865475 0.7071067811865476
usemtl m_dce0580d-0fab-c8dd-ea7b-1568a31bb152
f 12/28/7 15/27/7 13/26/7 10/25/7
f 11/32/8 12/31/8 10/30/8 9/29/8
f 16/36/9 11/35/9 9/34/9 14/33/9
f 15/40/10 16/39/10 14/38/10 13/37/10
f 14/44/11 9/43/11 10/42/11 13/41/11
f 15/48/12 12/47/12 11/46/12 16/45/12
o cube
v 0.375 0.6401650429449552 0.3125
v 0.375 0.375 0.047334957055044646
v 0.375 0.375 0.5776650429449552
v 0.375 0.10983495705504465 0.3125
v 0.25 0.375 0.047334957055044646
v 0.25 0.6401650429449552 0.3125
v 0.25 0.10983495705504465 0.3125
v 0.25 0.375 0.5776650429449552
vt 0.8125 1
vt 0.75 1
vt 0.75 0.8125
vt 0.8125 0.8125
vt 1 1
vt 0.8125 1
vt 0.8125 0.8125
vt 1 0.8125
vt 0.8125 1
vt 0.75 1
vt 0.75 0.8125
vt 0.8125 0.8125
vt 1 1
vt 0.8125 1
vt 0.8125 0.8125
vt 1 0.8125
vt 0.8125 1
vt 0.75 1
vt 0.75 0.8125
vt 0.8125 0.8125
vt 0.8125 1
vt 0.75 1
vt 0.75 0.8125
vt 0.8125 0.8125
vn 0 -0.7071067811865476 -0.7071067811865475
vn 1 0 0
vn 0 0.7071067811865476 0.7071067811865475
vn -1 0 0
vn 0 0.7071067811865475 -0.7071067811865476
vn 0 -0.7071067811865475 0.7071067811865476
usemtl m_dce0580d-0fab-c8dd-ea7b-1568a31bb152
f 20/52/13 23/51/13 21/50/13 18/49/13
f 19/56/14 20/55/14 18/54/14 17/53/14
f 24/60/15 19/59/15 17/58/15 22/57/15
f 23/64/16 24/63/16 22/62/16 21/61/16
f 22/68/17 17/67/17 18/66/17 21/65/17
f 23/72/18 20/71/18 19/70/18 24/69/18
o cube
v 0.31187498569488525 1.0075825214724776 -0.05491747852752238
v 0.31187498569488525 0.7493749856948853 -0.31312501430511464
v 0.31187498569488525 0.6401650429449552 0.3125
v 0.31187498569488525 0.381957507167363 0.05429246422240763
v -0.31312501430511475 0.7493749856948853 -0.31312501430511464
v -0.31312501430511475 1.0075825214724776 -0.05491747852752238
v -0.31312501430511475 0.381957507167363 0.05429246422240763
v -0.31312501430511475 0.6401650429449552 0.3125
vt 0.59375 0
vt 0.90625 0
vt 0.90625 0.25
vt 0.59375 0.25
vt 0.6875 0.75
vt 0.5 0.75
vt 0.5 1
vt 0.6875 1
vt 0.53125 0.49019660940672627
vt 0.5 0.49019660940672627
vt 0.5 0.75
vt 0.53125 0.75
vt 0.5 0.75
vt 0.6875 0.75
vt 0.6875 1
vt 0.5 1
vt 0.6875 0.8125
vt 0.75 0.8125
vt 0.75 0.625
vt 0.6875 0.625
vt 0.6875 0.8125
vt 0.75 0.8125
vt 0.75 0.625
vt 0.6875 0.625
vn 0 -0.7071067811865476 -0.7071067811865475
vn 1 0 0
vn 0 0.7071067811865476 0.7071067811865475
vn -1 0 0
vn 0 0.7071067811865475 -0.7071067811865476
vn 0 -0.7071067811865475 0.7071067811865476
usemtl m_dce0580d-0fab-c8dd-ea7b-1568a31bb152
f 28/76/19 31/75/19 29/74/19 26/73/19
f 27/80/20 28/79/20 26/78/20 25/77/20
f 32/84/21 27/83/21 25/82/21 30/81/21
f 31/88/22 32/87/22 30/86/22 29/85/22
f 30/92/23 25/91/23 26/90/23 29/89/23
f 31/96/24 28/95/24 27/94/24 32/93/24
o cube
v 0.31375 0.87625 0.31375
v 0.31375 0.87625 -0.31375
v 0.31375 0.68625 0.31375
v 0.31375 0.68625 -0.31375
v -0.31375 0.87625 -0.31375
v -0.31375 0.87625 0.31375
v -0.31375 0.68625 -0.31375
v -0.31375 0.68625 0.31375
vt 0.59375 0.46875
vt 0.90625 0.46875
vt 0.90625 0.375
vt 0.59375 0.375
vt 0.59375 0.46875
vt 0.90625 0.46875
vt 0.90625 0.375
vt 0.59375 0.375
vt 0.59375 0.46875
vt 0.90625 0.46875
vt 0.90625 0.375
vt 0.59375 0.375
vt 0.59375 0.46875
vt 0.90625 0.46875
vt 0.90625 0.375
vt 0.59375 0.375
vt 0.625 0.40625
vt 0.65625 0.40625
vt 0.65625 0.375
vt 0.625 0.375
vt 0.625 0.40625
vt 0.65625 0.40625
vt 0.65625 0.375
vt 0.625 0.375
vn 0 0 -1
vn 1 0 0
vn 0 0 1
vn -1 0 0
vn 0 1 0
vn 0 -1 0
usemtl m_dce0580d-0fab-c8dd-ea7b-1568a31bb152
f 36/100/25 39/99/25 37/98/25 34/97/25
f 35/104/26 36/103/26 34/102/26 33/101/26
f 40/108/27 35/107/27 33/106/27 38/105/27
f 39/112/28 40/111/28 38/110/28 37/109/28
f 38/116/29 33/115/29 34/114/29 37/113/29
f 39/120/30 36/119/30 35/118/30 40/117/30
o cube
v 0.37625 0.87625 0.37625
v 0.37625 0.87625 -0.37625
v 0.37625 0.62375 0.37625
v 0.37625 0.62375 -0.37625
v -0.37625 0.87625 -0.37625
v -0.37625 0.87625 0.37625
v -0.37625 0.62375 -0.37625
v -0.37625 0.62375 0.37625
vt 0.59375 0.375
vt 0.9375 0.375
vt 0.9375 0.25
vt 0.59375 0.25
vt 0.59375 0.375
vt 0.9375 0.375
vt 0.9375 0.25
vt 0.59375 0.25
vt 0.59375 0.375
vt 0.9375 0.375
vt 0.9375 0.25
vt 0.59375 0.25
vt 0.59375 0.375
vt 0.9375 0.375
vt 0.9375 0.25
vt 0.59375 0.25
vt 0.5625 0.28125
vt 0.59375 0.28125
vt 0.59375 0.25
vt 0.5625 0.25
vt 0.5625 0.28125
vt 0.59375 0.28125
vt 0.59375 0.25
vt 0.5625 0.25
vn 0 0 -1
vn 1 0 0
vn 0 0 1
vn -1 0 0
vn 0 1 0
vn 0 -1 0
usemtl m_dce0580d-0fab-c8dd-ea7b-1568a31bb152
f 44/124/31 47/123/31 45/122/31 42/121/31
f 43/128/32 44/127/32 42/126/32 41/125/32
f 48/132/33 43/131/33 41/130/33 46/129/33
f 47/136/34 48/135/34 46/134/34 45/133/34
f 46/140/35 41/139/35 42/138/35 45/137/35
f 47/144/36 44/143/36 43/142/36 48/141/36
o cylinder
v 0.25000000000000006 0.3749999999999999 0.3125
v -0.24999999999999986 0.375 0.3125
v 0.2500000000000001 0.5303300858899107 0.6875
v -0.24999999999999983 0.5303300858899107 0.6875
v 0.2500000000000001 0.75 0.4678300858899107
v -0.24999999999999986 0.7500000000000001 0.4678300858899107
v 0.2500000000000001 0.75 0.15716991411008935
v -0.24999999999999986 0.7500000000000001 0.15716991411008935
v 0.2500000000000001 0.5303300858899107 -0.0625
v -0.24999999999999983 0.5303300858899107 -0.0625
v 0.25 0.21966991411008935 -0.0625
v -0.24999999999999994 0.2196699141100894 -0.0625
v 0.25 0 0.1571699141100891
v -0.25 5.551115123125783e-17 0.1571699141100891
v 0.25 -5.551115123125783e-17 0.4678300858899107
v -0.25 5.551115123125783e-17 0.4678300858899107
v 0.25 0.21966991411008904 0.6874999999999999
v -0.24999999999999994 0.21966991411008913 0.6874999999999999
vt 0.17233495705504456 0.84375
vt 0.0625 0.7339150429449554
vt 0.24999999999999992 0.65625
vt 0.3125 0.375
vt 0.15625 0.375
vt 0.15625 0.125
vt 0.3125 0.125
vt 0.4374999999999999 0.7339150429449552
vt 0.32766504294495535 0.84375
vt 0.25 0.65625
vt 0.328125 0.84375
vt 0.171875 0.84375
vt 0.25 0.65625
vt 0.15625 0.375
vt 0 0.375
vt 0 0.125
vt 0.15625 0.125
vt 0.328125 0.84375
vt 0.171875 0.84375
vt 0.2499999999999999 0.65625
vt 0.4375000000000001 0.7339150429449554
vt 0.32766504294495535 0.84375
vt 0.25 0.65625
vt 0.3125 0.375
vt 0.15625 0.375
vt 0.15625 0.125
vt 0.3125 0.125
vt 0.17233495705504476 0.84375
vt 0.0625 0.7339150429449552
vt 0.2499999999999999 0.65625
vt 0.4375000000000001 0.578125
vt 0.4375000000000001 0.734375
vt 0.25 0.65625
vt 0.15625 0.375
vt 0 0.375
vt 0 0.125
vt 0.15625 0.125
vt 0.0625 0.734375
vt 0.0625 0.578125
vt 0.2500000000000001 0.65625
vt 0.32766504294495546 0.46875
vt 0.4375000000000001 0.5785849570550448
vt 0.25 0.65625
vt 0.3125 0.375
vt 0.15625 0.375
vt 0.15625 0.125
vt 0.3125 0.125
vt 0.0625 0.5785849570550445
vt 0.17233495705504476 0.4687500000000002
vt 0.2500000000000002 0.65625
vt 0.171875 0.46875
vt 0.328125 0.46875
vt 0.24999999999999994 0.65625
vt 0.15625 0.375
vt 0 0.375
vt 0 0.125
vt 0.15625 0.125
vt 0.171875 0.46875
vt 0.328125 0.46875
vt 0.2500000000000001 0.65625
vt 0.0625 0.5785849570550445
vt 0.17233495705504456 0.46875
vt 0.24999999999999992 0.65625
vt 0.3125 0.375
vt 0.15625 0.375
vt 0.15625 0.125
vt 0.3125 0.125
vt 0.32766504294495546 0.4687500000000002
vt 0.4375 0.5785849570550445
vt 0.25 0.65625
vt 0.0625 0.734375
vt 0.0625 0.578125
vt 0.24999999999999992 0.65625
vt 0.15625 0.375
vt 0 0.375
vt 0 0.125
vt 0.15625 0.125
vt 0.4374999999999999 0.578125
vt 0.4374999999999999 0.734375
vt 0.25 0.65625
vn 1 -1.046728305789183e-16 -1.0467283057891829e-16
vn 1.3401577416544662e-16 0.7071067811865476 0.7071067811865475
vn -1 -3.700743415417189e-17 8.934384944363107e-17
vn 1 -1.480297366166875e-16 0
vn 2.220446049250313e-16 1 0
vn -1 0 0
vn 1 -1.0467283057891831e-16 1.0467283057891829e-16
vn 0 0.7071067811865476 -0.7071067811865475
vn -1 -3.700743415417188e-17 -8.934384944363107e-17
vn 1 -3.5737539777452413e-16 -1.3225546501461689e-31
vn 0 0 -1
vn -1 3.573753977745242e-16 7.401486830834383e-17
vn 1 -1.0467283057891827e-16 -1.0467283057891839e-16
vn -4.4671924721815553e-17 -0.7071067811865471 -0.707106781186548
vn -1 3.3569694475563956e-16 8.29943775600338e-17
vn 1 -1.4802973661668758e-16 -2.645109300292336e-32
vn -2.220446049250313e-16 -1 -1.7868769888726192e-16
vn -1 3.700743415417189e-16 0
vn 1 -1.0467283057891834e-16 1.0467283057891831e-16
vn -1.3401577416544675e-16 -0.7071067811865476 0.7071067811865475
vn -1 3.3569694475563975e-16 -8.29943775600335e-17
vn 1 -3.573753977745238e-16 0
vn 0 -3.5737539777452383e-16 1
vn -1 3.5737539777452393e-16 -7.401486830834369e-17
usemtl m_dce0580d-0fab-c8dd-ea7b-1568a31bb152
f 53/145/37 51/146/37 49/147/37
f 51/148/38 53/149/38 54/150/38 52/151/38
f 52/152/39 54/153/39 50/154/39
f 55/155/40 53/156/40 49/157/40
f 53/158/41 55/159/41 56/160/41 54/161/41
f 54/162/42 56/163/42 50/164/42
f 57/165/43 55/166/43 49/167/43
f 55/168/44 57/169/44 58/170/44 56/171/44
f 56/172/45 58/173/45 50/174/45
f 59/175/46 57/176/46 49/177/46
f 57/178/47 59/179/47 60/180/47 58/181/47
f 58/182/48 60/183/48 50/184/48
f 61/185/49 59/186/49 49/187/49
f 59/188/50 61/189/50 62/190/50 60/191/50
f 60/192/51 62/193/51 50/194/51
f 63/195/52 61/196/52 49/197/52
f 61/198/53 63/199/53 64/200/53 62/201/53
f 62/202/54 64/203/54 50/204/54
f 65/205/55 63/206/55 49/207/55
f 63/208/56 65/209/56 66/210/56 64/211/56
f 64/212/57 66/213/57 50/214/57
f 51/215/58 65/216/58 49/217/58
f 65/218/59 51/219/59 52/220/59 66/221/59
f 66/222/60 52/223/60 50/224/60
o tube
v 0.2503125000000001 0.5303300858899107 0.6875
v -0.2503124999999999 0.5303300858899107 0.6875
v 0.25031250000000005 0.4784072043171908 0.5621470751096478
v -0.25031249999999994 0.4784072043171909 0.5621470751096478
v 0.25031250000000016 0.75 0.4678300858899107
v -0.2503124999999998 0.75 0.4678300858899107
v 0.2503125000000001 0.6246470751096478 0.41590720431719086
v -0.2503124999999999 0.6246470751096478 0.41590720431719086
v 0.25031250000000016 0.75 0.15716991411008935
v -0.2503124999999998 0.75 0.15716991411008935
v 0.2503125000000001 0.6246470751096478 0.20909279568280914
v -0.2503124999999999 0.6246470751096478 0.20909279568280914
v 0.2503125000000001 0.5303300858899107 -0.06250000000000006
v -0.2503124999999999 0.5303300858899107 -0.06250000000000006
v 0.25031250000000005 0.4784072043171908 0.06285292489035219
v -0.25031249999999994 0.4784072043171909 0.06285292489035219
v 0.2503125 0.21966991411008932 -0.06250000000000006
v -0.2503125 0.21966991411008943 -0.06250000000000006
v 0.25031250000000005 0.2715927956828091 0.06285292489035216
v -0.25031249999999994 0.2715927956828092 0.06285292489035216
v 0.2503125 0 0.1571699141100891
v -0.2503125 1.1102230246251565e-16 0.1571699141100891
v 0.2503125 0.12535292489035219 0.20909279568280897
v -0.2503125 0.1253529248903523 0.20909279568280897
v 0.2503125 -5.551115123125783e-17 0.46783008588991076
v -0.2503125 5.551115123125783e-17 0.46783008588991076
v 0.2503125 0.12535292489035216 0.4159072043171909
v -0.2503125 0.12535292489035227 0.4159072043171909
v 0.2503125 0.21966991411008904 0.6875
v -0.2503125 0.21966991411008915 0.6875
v 0.25031250000000005 0.2715927956828089 0.5621470751096478
v -0.25031249999999994 0.27159279568280903 0.5621470751096478
vt 0.375 0.28638393755281044
vt 0.375 0.18236606244718956
vt 0.3125 0.15625
vt 0.3125 0.3125
vt 0.3125 0.3125
vt 0.3125 0.15625
vt 0.375 0.18236353742851463
vt 0.3749999999999999 0.28638646257148537
vt 0.375 0.28638393755281044
vt 0.375 0.18236606244718956
vt 0.3125 0.15625
vt 0.3125 0.3125
vt 0.3125 0.3125
vt 0.3125 0.15625
vt 0.375 0.18236353742851463
vt 0.3749999999999999 0.28638646257148537
vt 0.375 0.28638393755281044
vt 0.375 0.18236606244718956
vt 0.3125 0.15625
vt 0.3125 0.3125
vt 0.3125 0.3125
vt 0.3125 0.15625
vt 0.375 0.18236353742851463
vt 0.3749999999999999 0.28638646257148537
vt 0.375 0.28638393755281044
vt 0.375 0.18236606244718956
vt 0.3125 0.15625
vt 0.3125 0.3125
vt 0.3125 0.3125
vt 0.3125 0.15625
vt 0.375 0.18236353742851463
vt 0.3749999999999999 0.28638646257148537
vt 0.375 0.28638393755281044
vt 0.375 0.18236606244718956
vt 0.3125 0.15625
vt 0.3125 0.3125
vt 0.3125 0.3125
vt 0.3125 0.15625
vt 0.375 0.18236353742851463
vt 0.3749999999999999 0.28638646257148537
vt 0.375 0.28638393755281044
vt 0.375 0.18236606244718956
vt 0.3125 0.15625
vt 0.3125 0.3125
vt 0.3125 0.3125
vt 0.3125 0.15625
vt 0.375 0.18236353742851463
vt 0.3749999999999999 0.28638646257148537
vt 0.375 0.28638393755281044
vt 0.375 0.18236606244718956
vt 0.3125 0.15625
vt 0.3125 0.3125
vt 0.3125 0.3125
vt 0.3125 0.15625
vt 0.375 0.18236353742851463
vt 0.3749999999999999 0.28638646257148537
vt 0.375 0.28638393755281044
vt 0.375 0.18236606244718956
vt 0.3125 0.15625
vt 0.3125 0.3125
vt 0.3125 0.3125
vt 0.3125 0.15625
vt 0.375 0.18236353742851463
vt 0.3749999999999999 0.28638646257148537
vn 1 -2.220446049250313e-16 0
vn -1 2.220446049250313e-16 0
vn 1 -2.220446049250313e-16 0
vn -1 2.220446049250313e-16 0
vn 1 -2.220446049250313e-16 0
vn -1 2.220446049250313e-16 0
vn 1 -2.220446049250313e-16 0
vn -1 2.220446049250313e-16 0
vn 1 -2.220446049250313e-16 0
vn -1 2.220446049250313e-16 0
vn 1 -2.220446049250313e-16 0
vn -1 2.220446049250313e-16 0
vn 1 -2.220446049250313e-16 0
vn -1 2.220446049250313e-16 0
vn 1 -2.220446049250313e-16 0
vn -1 2.220446049250313e-16 0
usemtl m_dce0580d-0fab-c8dd-ea7b-1568a31bb152
f 69/225/61 73/226/61 71/227/61 67/228/61
f 68/229/62 72/230/62 74/231/62 70/232/62
f 73/233/63 77/234/63 75/235/63 71/236/63
f 72/237/64 76/238/64 78/239/64 74/240/64
f 77/241/65 81/242/65 79/243/65 75/244/65
f 76/245/66 80/246/66 82/247/66 78/248/66
f 81/249/67 85/250/67 83/251/67 79/252/67
f 80/253/68 84/254/68 86/255/68 82/256/68
f 85/257/69 89/258/69 87/259/69 83/260/69
f 84/261/70 88/262/70 90/263/70 86/264/70
f 89/265/71 93/266/71 91/267/71 87/268/71
f 88/269/72 92/270/72 94/271/72 90/272/72
f 93/273/73 97/274/73 95/275/73 91/276/73
f 92/277/74 96/278/74 98/279/74 94/280/74
f 97/281/75 69/282/75 67/283/75 95/284/75
f 96/285/76 68/286/76 70/287/76 98/288/76
o cube
v 0.4375 0.4633883476483185 0.3125
v 0.4375 0.375 0.2241116523516815
v 0.4375 0.375 0.4008883476483185
v 0.4375 0.2866116523516815 0.3125
v 0.375 0.375 0.2241116523516815
v 0.375 0.4633883476483185 0.3125
v 0.375 0.2866116523516815 0.3125
v 0.375 0.375 0.4008883476483185
vt 0.90625 0.8125
vt 0.875 0.8125
vt 0.875 0.75
vt 0.90625 0.75
vt 0.9375 0.8125
vt 0.875 0.8125
vt 0.875 0.75
vt 0.9375 0.75
vt 0.90625 0.8125
vt 0.875 0.8125
vt 0.875 0.75
vt 0.90625 0.75
vt 0.9375 0.8125
vt 0.875 0.8125
vt 0.875 0.75
vt 0.9375 0.75
vt 0.90625 0.8125
vt 0.875 0.8125
vt 0.875 0.75
vt 0.90625 0.75
vt 0.90625 0.75
vt 0.875 0.75
vt 0.875 0.8125
vt 0.90625 0.8125
vn 0 -0.7071067811865476 -0.7071067811865475
vn 1 0 0
vn 0 0.7071067811865476 0.7071067811865475
vn -1 0 0
vn 0 0.7071067811865475 -0.7071067811865476
vn 0 -0.7071067811865475 0.7071067811865476
usemtl m_dce0580d-0fab-c8dd-ea7b-1568a31bb152
f 102/292/77 105/291/77 103/290/77 100/289/77
f 101/296/78 102/295/78 100/294/78 99/293/78
f 106/300/79 101/299/79 99/298/79 104/297/79
f 105/304/80 106/303/80 104/302/80 103/301/80
f 104/308/81 99/307/81 100/306/81 103/305/81
f 105/312/82 102/311/82 101/310/82 106/309/82
o cube
v -0.375 0.4633883476483185 0.3125
v -0.375 0.375 0.2241116523516815
v -0.375 0.375 0.4008883476483185
v -0.375 0.2866116523516815 0.3125
v -0.4375 0.375 0.2241116523516815
v -0.4375 0.4633883476483185 0.3125
v -0.4375 0.2866116523516815 0.3125
v -0.4375 0.375 0.4008883476483185
vt 0.875 0.8125
vt 0.90625 0.8125
vt 0.90625 0.75
vt 0.875 0.75
vt 0.875 0.8125
vt 0.9375 0.8125
vt 0.9375 0.75
vt 0.875 0.75
vt 0.875 0.8125
vt 0.90625 0.8125
vt 0.90625 0.75
vt 0.875 0.75
vt 0.875 0.8125
vt 0.9375 0.8125
vt 0.9375 0.75
vt 0.875 0.75
vt 0.875 0.8125
vt 0.90625 0.8125
vt 0.90625 0.75
vt 0.875 0.75
vt 0.875 0.75
vt 0.90625 0.75
vt 0.90625 0.8125
vt 0.875 0.8125
vn 0 -0.7071067811865476 -0.7071067811865475
vn 1 0 0
vn 0 0.7071067811865476 0.7071067811865475
vn -1 0 0
vn 0 0.7071067811865475 -0.7071067811865476
vn 0 -0.7071067811865475 0.7071067811865476
usemtl m_dce0580d-0fab-c8dd-ea7b-1568a31bb152
f 110/316/83 113/315/83 111/314/83 108/313/83
f 109/320/84 110/319/84 108/318/84 107/317/84
f 114/324/85 109/323/85 107/322/85 112/321/85
f 113/328/86 114/327/86 112/326/86 111/325/86
f 112/332/87 107/331/87 108/330/87 111/329/87
f 113/336/88 110/335/88 109/334/88 114/333/88